<?xml version="1.0" encoding="UTF-8" standalone="no"?>
<svg
   xmlns:dc="http://purl.org/dc/elements/1.1/"
   xmlns:cc="http://creativecommons.org/ns#"
   xmlns:rdf="http://www.w3.org/1999/02/22-rdf-syntax-ns#"
   xmlns:svg="http://www.w3.org/2000/svg"
   xmlns="http://www.w3.org/2000/svg"
   xmlns:sodipodi="http://sodipodi.sourceforge.net/DTD/sodipodi-0.dtd"
   xmlns:inkscape="http://www.inkscape.org/namespaces/inkscape"
   viewBox="0 0 237.25256 83.352562"
   height="83.352562"
   width="237.25256"
   xml:space="preserve"
   version="1.1"
   id="svg5496"
   inkscape:version="0.91 r13725"
   sodipodi:docname="logo.svg"><sodipodi:namedview
     pagecolor="#ffffff"
     bordercolor="#666666"
     borderopacity="1"
     objecttolerance="10"
     gridtolerance="10"
     guidetolerance="10"
     inkscape:pageopacity="0"
     inkscape:pageshadow="2"
     inkscape:window-width="1448"
     inkscape:window-height="857"
     id="namedview3377"
     showgrid="false"
     inkscape:zoom="2.3256327"
     inkscape:cx="97.11395"
     inkscape:cy="32.099885"
     inkscape:window-x="0"
     inkscape:window-y="0"
     inkscape:window-maximized="0"
     inkscape:current-layer="svg5496"
     fit-margin-top="0"
     fit-margin-left="0"
     fit-margin-right="0"
     fit-margin-bottom="0" /><metadata
     id="metadata5502"><rdf:RDF><cc:Work
         rdf:about=""><dc:format>image/svg+xml</dc:format><dc:type
           rdf:resource="http://purl.org/dc/dcmitype/StillImage" /><dc:title></dc:title></cc:Work></rdf:RDF></metadata><defs
     id="defs5500"><clipPath
       id="clipPath5510"
       clipPathUnits="userSpaceOnUse"><path
         id="path5512"
         d="M 0,508 805,508 805,0 0,0 0,508 Z"
         inkscape:connector-curvature="0" /></clipPath></defs><g
     transform="matrix(1.5233222,0,0,-1.5233222,-3.5171077,92.980098)"
     id="g5504"><g
       transform="matrix(0.63160759,0,0,0.63160759,-63.435699,-201.97127)"
       id="g6063"><g
         id="g5514"
         transform="translate(136.7558,379.4927)"><path
           d="m 0,0 0,0.161 c 0,5.698 -3.933,9.791 -8.909,9.791 -4.896,0 -8.828,-4.093 -8.828,-9.791 l 0,-0.161 c 0,-5.778 3.932,-9.872 8.828,-9.872 C -3.933,-9.872 0,-5.858 0,0 m -32.665,21.75 15.249,0 0,-5.778 c 2.969,3.611 6.661,6.742 13.162,6.742 10.353,0 19.262,-8.588 19.262,-22.473 l 0,-0.16 c 0,-14.126 -8.909,-22.714 -19.182,-22.714 -6.581,0 -10.433,2.97 -13.242,6.26 l 0,-18.138 -15.249,0 0,56.261 z"
           style="fill:#df5707;fill-opacity:1;fill-rule:nonzero;stroke:none"
           id="path5516"
           inkscape:connector-curvature="0" /></g><g
         id="g5518"
         transform="translate(181.7845,373.5538)"><path
           d="m 0,0 0,2.006 c -1.525,0.643 -3.692,1.124 -5.939,1.124 -4.414,0 -6.983,-2.167 -6.983,-5.377 l 0,-0.161 c 0,-2.969 2.248,-4.735 5.378,-4.735 C -3.13,-7.143 0,-4.334 0,0 m -27.609,-3.291 0,0.161 c 0,8.989 6.822,13.644 17.015,13.644 4.013,0 7.945,-0.803 10.434,-1.685 l 0,0.722 c 0,4.494 -2.809,7.063 -8.669,7.063 -4.574,0 -8.106,-0.883 -11.958,-2.408 l -3.13,10.754 c 4.896,2.007 10.112,3.372 17.577,3.372 7.785,0 13.082,-1.847 16.533,-5.297 3.291,-3.211 4.655,-7.705 4.655,-13.805 l 0,-24.961 -15.089,0 0,4.495 c -2.969,-3.291 -7.063,-5.458 -12.761,-5.458 -8.267,0 -14.607,4.736 -14.607,13.403"
           style="fill:#df5707;fill-opacity:1;fill-rule:nonzero;stroke:none"
           id="path5520"
           inkscape:connector-curvature="0" /></g><g
         id="g5522"
         transform="translate(203.415,401.2429)"><path
           d="m 0,0 15.249,0 0,-8.748 c 2.488,5.939 6.501,9.791 13.725,9.47 l 0,-16.051 -1.285,0 c -7.945,0 -12.44,-4.575 -12.44,-14.607 l 0,-13.484 L 0,-43.42 0,0 Z"
           style="fill:#df5707;fill-opacity:1;fill-rule:nonzero;stroke:none"
           id="path5524"
           inkscape:connector-curvature="0" /></g><g
         id="g5526"
         transform="translate(241.4127,371.3065)"><path
           d="m 0,0 0,17.657 -5.137,0 0,12.279 5.137,0 0,10.996 15.249,0 0,-10.996 10.113,0 0,-12.279 -10.113,0 0,-14.687 c 0,-3.05 1.365,-4.334 4.173,-4.334 2.007,0 3.933,0.562 5.779,1.445 l 0,-11.959 C 22.472,-13.403 18.86,-14.366 14.607,-14.366 5.458,-14.366 0,-10.353 0,0"
           style="fill:#df5707;fill-opacity:1;fill-rule:nonzero;stroke:none"
           id="path5528"
           inkscape:connector-curvature="0" /></g><path
         d="m 272.675,401.243 15.249,0 0,-43.42 -15.249,0 0,43.42 z m -0.321,15.169 15.891,0 0,-11.237 -15.891,0 0,11.237 z"
         style="fill:#df5707;fill-opacity:1;fill-rule:nonzero;stroke:none"
         id="path5530"
         inkscape:connector-curvature="0" /><g
         id="g5532"
         transform="translate(337.9521,362.0965)"><path
           d="m 0,0 c 0,0 -12.462,-9.504 -28.381,-2.721 -15.919,6.783 -18.19,22.749 -17.575,28.777 0.615,6.029 2.604,11.686 5.19,14.902 l 11.263,0.589 1.408,-11.158 c 0,0 -2.224,-3.695 -1.363,-8.462 0.862,-4.767 5.372,-11.508 14.058,-10.675"
           style="fill:#ef960d;fill-opacity:1;fill-rule:nonzero;stroke:none"
           id="path5534"
           inkscape:connector-curvature="0" /></g><g
         id="g5536"
         transform="translate(350.5416,389.1091)"><path
           d="m 0,0 c -0.749,7.808 -4.493,14.857 -10.543,19.849 -6.051,4.992 -13.683,7.329 -21.491,6.58 -7.095,-0.68 -13.559,-3.842 -18.427,-8.952 l 11.579,0.598 1.213,-10.974 -0.025,-0.031 c 1.967,1.691 4.448,2.82 7.22,3.086 7.146,0.685 13.516,-4.571 14.201,-11.716 0.685,-7.145 -4.571,-13.516 -11.716,-14.201 -7.145,-0.685 -13.516,4.571 -14.201,11.716 -0.256,2.669 0.319,5.23 1.51,7.427 l -0.005,-0.006 -1.407,11.158 -11.186,-0.493 c -4.021,-5.721 -5.859,-12.61 -5.185,-19.646 0.749,-7.808 4.493,-14.857 10.543,-19.849 6.051,-4.992 13.683,-7.328 21.491,-6.58 7.808,0.749 14.857,4.493 19.849,10.543 C -1.588,-15.44 0.749,-7.808 0,0"
           style="fill:#ef960d;fill-opacity:1;fill-rule:nonzero;stroke:none"
           id="path5538"
           inkscape:connector-curvature="0" /></g><g
         id="g5540"
         transform="translate(241.0605,344.8272)"><path
           d="m 0,0 1.67,0 0,-13.25 8.326,0 0,-1.543 -9.996,0 L 0,0 Z"
           style="fill:#ef960d;fill-opacity:1;fill-rule:nonzero;stroke:none"
           id="path5542"
           inkscape:connector-curvature="0" /></g><g
         id="g5544"
         transform="translate(260.8184,336.0992)"><path
           d="M 0,0 C -0.169,1.986 -1.311,3.72 -3.487,3.72 -5.389,3.72 -6.826,2.135 -7.037,0 L 0,0 Z m -3.191,-4.903 c 1.501,0 2.557,0.613 3.445,1.543 l 1.014,-0.91 c -1.099,-1.225 -2.43,-2.049 -4.501,-2.049 -3.001,0 -5.453,2.303 -5.453,5.706 0,3.17 2.219,5.706 5.241,5.706 3.233,0 5.093,-2.578 5.093,-5.79 0,-0.149 0,-0.318 -0.021,-0.508 l -8.664,0 c 0.232,-2.366 1.923,-3.698 3.846,-3.698"
           style="fill:#ef960d;fill-opacity:1;fill-rule:nonzero;stroke:none"
           id="path5546"
           inkscape:connector-curvature="0" /></g><g
         id="g5548"
         transform="translate(266.6709,333.1402)"><path
           d="m 0,0 c 0,-1.331 0.739,-1.817 1.838,-1.817 0.55,0 1.015,0.105 1.585,0.38 l 0,-1.395 C 2.853,-3.128 2.24,-3.297 1.458,-3.297 c -1.754,0 -3.086,0.866 -3.086,3.086 l 0,6.594 -1.521,0 0,1.436 1.521,0 0,3.297 1.628,0 0,-3.297 3.466,0 0,-1.436 L 0,6.383 0,0 Z"
           style="fill:#ef960d;fill-opacity:1;fill-rule:nonzero;stroke:none"
           id="path5550"
           inkscape:connector-curvature="0" /></g><g
         id="g5552"
         transform="translate(273.0479,342.6079)"><path
           d="m 0,0 -0.761,0 0,2.219 1.944,0 0,-1.902 c 0,-1.712 -0.74,-2.536 -2.346,-2.895 l -0.253,0.739 C -0.359,-1.458 0.084,-0.909 0,0"
           style="fill:#ef960d;fill-opacity:1;fill-rule:nonzero;stroke:none"
           id="path5554"
           inkscape:connector-curvature="0" /></g><g
         id="g5556"
         transform="translate(279.7646,329.8228)"><path
           d="m 0,0 c -1.564,0 -3.297,0.612 -4.522,1.605 l 0.824,1.164 c 1.182,-0.888 2.493,-1.396 3.782,-1.396 1.311,0 2.262,0.677 2.262,1.733 l 0,0.042 c 0,1.099 -1.289,1.522 -2.727,1.923 -1.712,0.487 -3.613,1.078 -3.613,3.086 l 0,0.042 c 0,1.881 1.563,3.128 3.719,3.128 1.332,0 2.811,-0.465 3.93,-1.205 L 2.916,8.896 c -1.015,0.656 -2.177,1.057 -3.233,1.057 -1.289,0 -2.114,-0.676 -2.114,-1.585 l 0,-0.042 C -2.431,7.291 -1.078,6.889 0.38,6.445 2.07,5.938 3.889,5.283 3.889,3.317 l 0,-0.042 C 3.889,1.204 2.177,0 0,0"
           style="fill:#ef960d;fill-opacity:1;fill-rule:nonzero;stroke:none"
           id="path5558"
           inkscape:connector-curvature="0" /></g><g
         id="g5560"
         transform="translate(296.541,329.8228)"><path
           d="m 0,0 c -2.24,0 -4.501,0.781 -6.276,2.366 l 1.922,2.304 c 1.333,-1.099 2.727,-1.796 4.417,-1.796 1.333,0 2.135,0.528 2.135,1.395 l 0,0.042 c 0,0.824 -0.507,1.247 -2.979,1.88 -2.981,0.761 -4.904,1.585 -4.904,4.523 l 0,0.043 c 0,2.683 2.156,4.459 5.178,4.459 2.155,0 3.994,-0.676 5.495,-1.881 L 3.297,10.884 c -1.31,0.908 -2.6,1.457 -3.846,1.457 -1.247,0 -1.902,-0.57 -1.902,-1.288 l 0,-0.043 c 0,-0.972 0.634,-1.289 3.191,-1.945 C 3.741,8.284 5.432,7.206 5.432,4.628 l 0,-0.042 C 5.432,1.648 3.191,0 0,0"
           style="fill:#ef960d;fill-opacity:1;fill-rule:nonzero;stroke:none"
           id="path5562"
           inkscape:connector-curvature="0" /></g><g
         id="g5564"
         transform="translate(310.7842,330.0337)"><path
           d="m 0,0 0,6.319 c 0,1.522 -0.719,2.303 -1.944,2.303 -1.226,0 -2.008,-0.781 -2.008,-2.303 l 0,-6.319 -3.212,0 0,15.427 3.212,0 0,-5.705 c 0.739,0.951 1.69,1.817 3.318,1.817 2.43,0 3.846,-1.606 3.846,-4.206 L 3.212,0 0,0 Z"
           style="fill:#ef960d;fill-opacity:1;fill-rule:nonzero;stroke:none"
           id="path5566"
           inkscape:connector-curvature="0" /></g><g
         id="g5568"
         transform="translate(322.6387,334.5982)"><path
           d="m 0,0 c -0.55,0.254 -1.269,0.423 -2.051,0.423 -1.373,0 -2.219,-0.549 -2.219,-1.564 l 0,-0.043 c 0,-0.866 0.719,-1.373 1.754,-1.373 1.501,0 2.516,0.825 2.516,1.987 L 0,0 Z m -0.063,-4.564 0,1.225 c -0.783,-0.866 -1.861,-1.436 -3.424,-1.436 -2.135,0 -3.889,1.225 -3.889,3.465 l 0,0.042 c 0,2.473 1.881,3.614 4.564,3.614 1.142,0 1.966,-0.19 2.769,-0.465 l 0,0.19 c 0,1.332 -0.824,2.072 -2.43,2.072 -1.225,0 -2.092,-0.233 -3.128,-0.614 l -0.802,2.452 c 1.246,0.55 2.471,0.909 4.395,0.909 3.508,0 5.051,-1.818 5.051,-4.882 l 0,-6.572 -3.106,0 z"
           style="fill:#ef960d;fill-opacity:1;fill-rule:nonzero;stroke:none"
           id="path5570"
           inkscape:connector-curvature="0" /></g><g
         id="g5572"
         transform="translate(334.2598,338.2124)"><path
           d="m 0,0 c -2.134,0 -3.444,-1.289 -3.444,-3.994 l 0,-4.185 -3.212,0 0,11.328 3.212,0 0,-2.283 c 0.655,1.565 1.712,2.579 3.613,2.494 L 0.169,0 0,0 Z"
           style="fill:#ef960d;fill-opacity:1;fill-rule:nonzero;stroke:none"
           id="path5574"
           inkscape:connector-curvature="0" /></g><g
         id="g5576"
         transform="translate(340.3213,338.9947)"><path
           d="m 0,0 c -1.332,0 -2.198,-0.951 -2.452,-2.409 l 4.84,0 C 2.197,-0.973 1.353,0 0,0 m 5.474,-4.417 -7.883,0 c 0.316,-1.458 1.331,-2.22 2.768,-2.22 1.078,0 1.86,0.339 2.747,1.163 L 4.945,-7.102 C 3.889,-8.411 2.366,-9.215 0.316,-9.215 c -3.402,0 -5.917,2.389 -5.917,5.855 l 0,0.042 c 0,3.233 2.304,5.896 5.601,5.896 3.782,0 5.516,-2.937 5.516,-6.15 l 0,-0.042 c 0,-0.318 -0.022,-0.507 -0.042,-0.803"
           style="fill:#ef960d;fill-opacity:1;fill-rule:nonzero;stroke:none"
           id="path5578"
           inkscape:connector-curvature="0" /></g><path
         d="m 347.04,333.415 3.423,0 0,-3.381 -3.423,0 0,3.381 z"
         style="fill:#ef960d;fill-opacity:1;fill-rule:nonzero;stroke:none"
         id="path5580"
         inkscape:connector-curvature="0" /></g></g></svg>